# xmcd
#
# Track frame offsets:
#	150
#	13646
#	34314
#	66277
#	97332
#	154959
#	191215
#	223012
#	265120
#
# Disc length: 3965 seconds
#
# Revision: 4
# Processed by: cddbd v1.5.1PL0 Copyright (c) Steve Scherf et al.
# Submitted via: audiograbber 1.83.01
#
DISCID=880f7b09
DTITLE=Ratdog - San Diego, CA 4th and B 8th February 2003 1st Set
DYEAR=2003
DGENRE=
TTITLE0=Dead Air
TTITLE1=jam
TTITLE2=Feel Like A Stranger
TTITLE3=Queen Jane Approximately
TTITLE4=Easy Answers
TTITLE5=Mission In The Rain
TTITLE6=Walkin' Blues
TTITLE7=Loser
TTITLE8=Big Boss Man
EXTD=2/8/2003 (Sat.) 4th and B, San Diego, CA\nI: Jam > Feel Like a Stranger > 
EXTD=Queen Jane Approximately > Easy Answers > Mission in the Rain > Walkin Blu
EXTD=es > Loser, Big Boss Man > Feel Like a Stranger Jam > Eyes of the World\nI
EXTD=I: Blackbird@3 > Friend of the Devil@3 > Black-Throated Wind@ > Help on th
EXTD=e Way > Slipknot! > Jam > Born Cross-Eyed > She Says > Two Djinn > Corrina
EXTD=> Slipknot! > Franklin's Tower\nE: One More Saturday Night\nFirst "Born C
EXTD=ross-Eyed"\nLast "Born Cross-Eyed"\nhttp://www.ratdog.org/setlists/2003.ph
EXTD=p#0208
EXTT0=
EXTT1=
EXTT2=
EXTT3=
EXTT4=
EXTT5=
EXTT6=
EXTT7=
EXTT8=
PLAYORDER=
